<svg class="icon" viewBox="0 0 1024 1024" xmlns="http://www.w3.org/2000/svg" width="128" height="128"><defs><style/></defs><path d="M229 513.2a284 284 0 10568 0 284 284 0 10-568 0z"/><path d="M513 817.2c-81.2 0-157.6-31.6-215-89-57.4-57.4-89-133.8-89-215 0-81.2 31.6-157.6 89-215 57.4-57.4 133.8-89 215-89 81.2 0 157.6 31.6 215 89s89 133.8 89 215c0 81.2-31.6 157.6-89 215s-133.8 89-215 89zm0-568c-145.6 0-264 118.4-264 264s118.4 264 264 264 264-118.4 264-264-118.4-264-264-264z"/><path d="M545.6 433.3h-66.2l-46.8 46.8v66.2l46.8 46.8h66.2l46.8-46.8v-66.2z"/><path d="M553.8 613.1h-82.7l-58.5-58.5v-82.7l58.5-58.5h82.7l58.5 58.5v82.7l-58.5 58.5zm-66.1-40h49.6l35.1-35.1v-49.6l-35.1-35.1h-49.6l-35.1 35.1V538l35.1 35.1z"/><path d="M612.4 532.6L377.6 269.2l29.8-26.6 165 185V240.4h40z"/><path d="M531.556 578.819L749.51 365.048l28.008 28.556-217.954 213.77z"/><path d="M620.5 782.8L435 573.1h350.6v40H523.8l126.7 143.2z"/><path d="M412.6 480.1h40v305.6h-40zm-172.2-66.8h305.2v40H240.4z"/><path d="M249.426 634.946l215.777-215.837 28.288 28.28-215.777 215.837z"/></svg>