<svg class="icon" viewBox="0 0 1024 1024" xmlns="http://www.w3.org/2000/svg" width="128" height="128"><defs><style/></defs><path d="M336.583 120.47c132.518-72.282 289.13-54.211 403.577 36.142-18.071 54.212 6.023 108.423 54.211 132.517 48.189 24.095 108.424 12.047 144.565-36.14 30.118-42.165 30.118-108.424-6.024-144.565-36.14-42.165-96.376-48.189-144.564-18.071C643.783-18.071 451.03-30.117 294.418 54.212c18.071 18.07 30.118 42.164 42.165 66.259zM137.807 451.766c0-54.212 12.047-102.4 30.117-150.589h6.024c54.212 0 102.4-36.14 108.423-90.352 12.047-54.212-18.07-108.424-72.282-126.495-48.188-18.07-108.424 0-138.541 48.189-24.094 42.164-12.047 102.4 24.094 138.54-48.188 108.424-48.188 234.918-6.024 349.366S222.136 819.2 330.56 867.388c0-24.094 6.023-54.212 18.07-78.306-132.518-60.235-210.823-192.753-210.823-337.317zm740.894-84.33c48.188 198.777-72.283 397.553-265.036 451.765-24.094-48.188-84.329-72.282-132.517-54.212-54.212 18.07-84.33 66.26-78.306 120.47 6.023 54.213 54.212 96.377 108.423 96.377s102.4-36.14 114.447-90.353c114.448-30.117 216.848-102.4 277.083-210.823 60.235-102.4 78.306-228.894 48.188-343.341-24.094 12.047-48.188 24.094-72.282 30.117z"/></svg>