<svg class="icon" viewBox="0 0 1024 1024" xmlns="http://www.w3.org/2000/svg" width="128" height="128"><defs><style/></defs><path d="M0 1023.957V0h1023.957v1023.957H0zm896-810.624a42.667 42.667 0 00-42.667-42.666H170.667A42.667 42.667 0 00128 213.333v512.043A42.667 42.667 0 00170.667 768h256v42.667H320a21.333 21.333 0 000 42.666h384a21.419 21.419 0 0021.376-21.376A21.376 21.376 0 00704 810.667H597.333V768h256A42.667 42.667 0 00896 725.376V213.333zM298.539 683.392s2.005-62.464 37.333-76.672c25.6-10.368 116.821-42.24 127.104-68.95l.597-1.834a16.213 16.213 0 00.726-6.187l-.598-.554a78.933 78.933 0 01-21.717-52.566s-11.733-4.522-16.597-17.578c-4.822-13.014-8.96-30.208-4.139-39.083 0 0-4.821-24.704-4.821-36.352s18.602-72.96 87.552-85.205c18.986-3.328 55.85 17.365 66.944 25.557 10.922 8.235 12.373 25.43 17.877 27.435 5.59 2.09 4.821 66.56 4.139 69.29 0 0 8.234-2.09 5.589 11.648-2.816 13.696-6.4 32-18.176 37.462 0 0-4.608 33.194-11.563 42.752a93.355 93.355 0 00-9.258 16.64s.298 4.65.896 6.698l.682 1.835c10.198 26.71 94.72 55.979 120.235 66.261-5.973-2.346 21.461 4.651 30.635 24.619 12.544 21.504 13.568 54.741 13.568 54.741H298.539v.043z"/></svg>