<svg class="icon" viewBox="0 0 1765 1024" xmlns="http://www.w3.org/2000/svg" width="220.625" height="128"><defs><style/></defs><path d="M1419.91 651.442V372.507l-256.79 139.476 256.782 139.45zM993.735 247.155H407.692c-14.703 0-27.225 5.157-37.675 15.539-10.382 10.33-15.616 22.835-15.616 37.454v423.756c0 14.644 5.234 27.088 15.607 37.488 10.459 10.313 22.98 15.513 37.684 15.513h586.042c14.704 0 27.277-5.2 37.65-15.513 10.459-10.4 15.641-22.844 15.641-37.488V300.148c0-14.619-5.182-27.123-15.64-37.454-10.374-10.382-22.947-15.54-37.65-15.54zM407.692 141.228h586.042c44.128 0 81.778 15.514 113.001 46.566 31.198 31.078 46.813 68.473 46.813 112.345v96.405l372.911-202.348V829.82l-372.91-202.357v96.405c0 43.873-15.608 81.267-46.814 112.345-31.223 31.061-68.864 46.575-113 46.575H407.691c-44.094 0-81.778-15.514-112.984-46.566-31.223-31.078-46.83-68.473-46.83-112.345V300.122c0-43.855 15.607-81.326 46.83-112.37 31.198-31.036 68.89-46.54 112.993-46.54v.016z"/></svg>